<?xml version="1.0"?>
<svg width="640" height="480" xmlns="http://www.w3.org/2000/svg" xmlns:svg="http://www.w3.org/2000/svg">
 <!-- Created with SVG-edit - https://github.com/SVG-Edit/svgedit-->
 <g class="layer">
  <title>Layer 1</title>
  <path d="m512.67,-453l55.38,-102.11l55.38,102.11l-55.38,102.11l-55.38,-102.11z" fill="none" id="svg_20" stroke="#000000" transform="rotate(-61.9036 568.042 -452.999)"/>
  <path d="m512.67,-453l55.38,-102.11l55.38,102.11l-55.38,102.11l-55.38,-102.11z" fill="none" id="svg_21" stroke="#000000" transform="rotate(-61.9036 568.042 -452.999)"/>
  <path d="m512.67,-453l55.38,-102.11l55.38,102.11l-55.38,102.11l-55.38,-102.11z" fill="none" id="svg_22" stroke="#000000" transform="rotate(-61.9036 568.042 -452.999)"/>
  <path d="m512.67,-453l55.38,-102.11l55.38,102.11l-55.38,102.11l-55.38,-102.11z" fill="none" id="svg_23" stroke="#000000" transform="rotate(-61.9036 568.042 -452.999)"/>
  <path d="m568.67,-427l55.38,-102.11l55.38,102.11l-55.38,102.11l-55.38,-102.11z" fill="none" id="svg_24" stroke="#000000" transform="rotate(-61.9036 624.042 -426.999)"/>
  <path d="m574.47,-461.3l55.38,-102.11l55.38,102.11l-55.38,102.11l-55.38,-102.11z" fill="none" id="svg_25" stroke="#000000" transform="rotate(-61.9036 629.845 -461.301)"/>
  <path d="m574.47,-461.3l55.38,-102.11l55.38,102.11l-55.38,102.11l-55.38,-102.11z" fill="none" id="svg_26" stroke="#000000" transform="rotate(-61.9036 629.845 -461.301)"/>
  <path d="m574.47,-461.3l55.38,-102.11l55.38,102.11l-55.38,102.11l-55.38,-102.11z" fill="none" id="svg_27" stroke="#000000" transform="rotate(-61.9036 629.845 -461.301)"/>
  <path d="m319.39,262.73l55.82,-101.88l55.82,101.88l-55.82,101.88l-55.82,-101.88z" fill="none" id="svg_28" stroke="#000000" transform="rotate(61.4469 375.203 262.732)"/>
  <path d="m-610.42,610.86l55.82,-101.88l55.82,101.88l-55.82,101.88l-55.82,-101.88z" fill="none" id="svg_29" stroke="#000000" transform="rotate(61.4469 -554.607 610.859)"/>
  <path d="m224.39,213.74l61.81,-96.88l61.81,96.88l-61.81,96.88l-61.81,-96.88z" fill="none" id="svg_30" stroke="#000000" transform="rotate(-0.0934316 286.199 213.741)"/>
  <line fill="none" id="svg_36" stroke="#000000" x1="286" x2="287" y1="117" y2="310"/>
  <line fill="none" id="svg_38" stroke="#000000" x1="464" x2="288" y1="215" y2="310"/>
  <line fill="none" id="svg_40" stroke="#000000" x1="171" x2="224" y1="311" y2="215"/>
  <line fill="none" id="svg_41" stroke="#000000" x1="224" x2="348" y1="214" y2="214"/>
  <line fill="none" id="svg_42" stroke="#000000" x1="348" x2="402" y1="213" y2="313"/>
  <path d="m142.92,262.99l55.58,-101.44l55.58,101.44l-55.58,101.44l-55.58,-101.44z" fill="none" id="svg_2" stroke="#000000" transform="rotate(-61.3215 198.5 262.99)"/>
  <line fill="none" id="svg_3" stroke="#000000" x1="286" x2="109" y1="311" y2="214"/>
 </g>
</svg>